<svg xmlns="http://www.w3.org/2000/svg" xmlns:xlink="http://www.w3.org/1999/xlink" fill="none" version="1.1" width="16" height="16" viewBox="0 0 16 16"><defs><clipPath id="master_svg0_8_05732"><rect x="0" y="0" width="16" height="16" rx="0"/></clipPath></defs><g clip-path="url(#master_svg0_8_05732)"><path d="M9.125000499999999,5.5C9.125000499999999,5.5,6.875,5.5,6.875,5.5C6.5984378,5.5,6.375,5.7234378,6.375,6C6.375,6,6.375,14.500001,6.375,14.500001C6.375,14.776563,6.5984378,15.000001,6.875,15.000001C6.875,15.000001,9.125000499999999,15.000001,9.125000499999999,15.000001C9.4015627,15.000001,9.625,14.776563,9.625,14.500001C9.625,14.500001,9.625,6,9.625,6C9.625,5.7234378,9.4015627,5.5,9.125000499999999,5.5ZM13.937501,1C13.937501,1,11.6875,1,11.6875,1C11.4109383,1,11.1875,1.22343749,11.1875,1.5C11.1875,1.5,11.1875,14.500001,11.1875,14.500001C11.1875,14.776563,11.4109383,15.000001,11.6875,15.000001C11.6875,15.000001,13.937501,15.000001,13.937501,15.000001C14.214063,15.000001,14.437501,14.776563,14.437501,14.500001C14.437501,14.500001,14.437501,1.5,14.437501,1.5C14.437501,1.22343749,14.214063,1,13.937501,1ZM4.312500200000001,10C4.312500200000001,10,2.0625,10,2.0625,10C1.78593749,10,1.5625,10.2234383,1.5625,10.5C1.5625,10.5,1.5625,14.500001,1.5625,14.500001C1.5625,14.776563,1.78593749,15.000001,2.0625,15.000001C2.0625,15.000001,4.312500200000001,15.000001,4.312500200000001,15.000001C4.5890625,15.000001,4.812500200000001,14.776563,4.812500200000001,14.500001C4.812500200000001,14.500001,4.812500200000001,10.5,4.812500200000001,10.5C4.812500200000001,10.2234383,4.5890625,10,4.312500200000001,10Z" fill="currentColor"/></g></svg>