<svg xmlns="http://www.w3.org/2000/svg" xmlns:xlink="http://www.w3.org/1999/xlink" fill="none" version="1.1" width="16" height="16" viewBox="0 0 16 16"><defs><clipPath id="master_svg0_8_05633"><rect x="0" y="0" width="16" height="16" rx="0"/></clipPath></defs><g clip-path="url(#master_svg0_8_05633)"><path d="M14.363634,0C14.363634,0,1.6363635699999999,0,1.6363635699999999,0C1.2843749500000001,0,1,0.25535712,1,0.57142854C1,0.57142854,1,4.5714283,1,4.5714283C1,4.5714283,14.999999,4.5714283,14.999999,4.5714283C14.999999,4.5714283,14.999999,0.57142854,14.999999,0.57142854C14.999999,0.25535712,14.715623,0,14.363634,0ZM6.886363,2.7142856C6.886363,2.7928572,6.8147717,2.8571427,6.7272716,2.8571427C6.7272716,2.8571427,3.0681818,2.8571427,3.0681818,2.8571427C2.9806814,2.8571427,2.9090908,2.7928572,2.9090908,2.7142856C2.9090908,2.7142856,2.9090908,1.8571429,2.9090908,1.8571429C2.9090908,1.7785712,2.9806814,1.7142857,3.0681818,1.7142857C3.0681818,1.7142857,6.7272716,1.7142857,6.7272716,1.7142857C6.8147717,1.7142857,6.886363,1.7785712,6.886363,1.8571429C6.886363,1.8571429,6.886363,2.7142856,6.886363,2.7142856ZM1,15.428572C1,15.744642,1.2843749500000001,16,1.6363635699999999,16C1.6363635699999999,16,14.363634,16,14.363634,16C14.715623,16,14.999999,15.744642,14.999999,15.428572C14.999999,15.428572,14.999999,11.428571,14.999999,11.428571C14.999999,11.428571,1,11.428571,1,11.428571C1,11.428571,1,15.428572,1,15.428572ZM12.454543,13C12.894032,13,13.249998,13.319642,13.249998,13.714286C13.249998,14.108928,12.894032,14.428572,12.454543,14.428572C12.015056,14.428572,11.65909,14.108928,11.65909,13.714286C11.65909,13.319642,12.015056,13,12.454543,13ZM1,10.285713C1,10.285713,14.999999,10.285713,14.999999,10.285713C14.999999,10.285713,14.999999,5.7142854,14.999999,5.7142854C14.999999,5.7142854,1,5.7142854,1,5.7142854C1,5.7142854,1,10.285713,1,10.285713ZM2.9090908,7.5714288C2.9090908,7.492857,2.9806814,7.4285717,3.0681818,7.4285717C3.0681818,7.4285717,6.7272716,7.4285717,6.7272716,7.4285717C6.8147717,7.4285717,6.886363,7.492857,6.886363,7.5714288C6.886363,7.5714288,6.886363,8.4285717,6.886363,8.4285717C6.886363,8.5071421,6.8147717,8.5714283,6.7272716,8.5714283C6.7272716,8.5714283,3.0681818,8.5714283,3.0681818,8.5714283C2.9806814,8.5714283,2.9090908,8.5071421,2.9090908,8.4285717C2.9090908,8.4285717,2.9090908,7.5714288,2.9090908,7.5714288Z" fill="#FFFFFF" fill-opacity="0.800000011920929"/></g></svg>