<svg xmlns="http://www.w3.org/2000/svg" xmlns:xlink="http://www.w3.org/1999/xlink" fill="none" version="1.1" width="16" height="16" viewBox="0 0 16 16"><defs><clipPath id="master_svg0_6_08634"><rect x="0" y="0" width="16" height="16" rx="0"/></clipPath></defs><g clip-path="url(#master_svg0_6_08634)"><path d="M2.7839999,5.5L4.1599998,5.5L4.1599998,6.8759995C4.1599998,6.9119992,4.1959996,6.9400001,4.2399998,6.9400001L5.1999998,6.9400001C5.244,6.9400001,5.2799997,6.9120002,5.2799997,6.8740001L5.2799997,5.5L6.6559997,5.5C6.6919994,5.5,6.7199998,5.4640002,6.7199998,5.4200001L6.7199998,4.46C6.7199998,4.4159999,6.6919999,4.3800001,6.6540003,4.3800001L5.2799997,4.3800001L5.2799997,3.0040002C5.2799997,2.9680004,5.244,2.9399998,5.1999998,2.9399998L4.2399998,2.9399998C4.1959996,2.9399998,4.1599998,2.9679997,4.1599998,3.0040002L4.1599998,4.3800001L2.7839999,4.3800001C2.7479999,4.3800001,2.72,4.4159999,2.72,4.46L2.72,5.4200001C2.72,5.4640002,2.7479999,5.5,2.7839999,5.5ZM9.3439999,5.5L13.216001,5.5C13.252001,5.5,13.280001,5.4640002,13.280001,5.4200001L13.280001,4.46C13.280001,4.4159999,13.252001,4.3800001,13.214001,4.3800001L9.3439999,4.3800001C9.3080006,4.3800001,9.2799997,4.4159999,9.2799997,4.46L9.2799997,5.4200001C9.2799997,5.4640002,9.3080006,5.5,9.3439999,5.5ZM9.3439999,10.8L13.216001,10.8C13.252001,10.8,13.280001,10.764,13.280001,10.719999L13.280001,9.7600002C13.280001,9.7159996,13.252001,9.6799994,13.214001,9.6799994L9.3439999,9.6799994C9.3080006,9.6799994,9.2799997,9.7159996,9.2799997,9.7600002L9.2799997,10.719999C9.2799997,10.764,9.3080006,10.8,9.3439999,10.8ZM9.3439999,12.88L13.216001,12.88C13.252001,12.88,13.280001,12.844,13.280001,12.799999L13.280001,11.84C13.280001,11.796,13.252001,11.759999,13.214001,11.759999L9.3439999,11.759999C9.3080006,11.759999,9.2799997,11.796,9.2799997,11.84L9.2799997,12.799999C9.2799997,12.844,9.3080006,12.88,9.3439999,12.88ZM5.4299998,11.259999L6.6540003,9.7619991C6.7399998,9.657999,6.6680002,9.5,6.5360003,9.5L5.52,9.5C5.474,9.5,5.4299998,9.5199995,5.402,9.5580006L4.7220001,10.389999L4.0419998,9.5580006C4.0120001,9.5220003,3.9679997,9.5,3.9240003,9.5L2.9060004,9.5C2.7740002,9.5,2.7020004,9.658,2.7880003,9.7619991L4.0120006,11.259999L2.7580009,12.796C2.6700008,12.9,2.7420006,13.057999,2.8740008,13.057999L3.8900006,13.057999C3.9360003,13.057999,3.9800005,13.037999,4.0080004,12.999998L4.7180004,12.129998L5.4280005,12.999998C5.4580002,13.035998,5.5020008,13.057999,5.5460005,13.057999L6.5619998,13.057999C6.6940002,13.057999,6.7660003,12.899999,6.6799998,12.796L5.4299998,11.259999ZM15.36,0L0.63999999,0C0.28600004,0,0,0.28600004,0,0.63999999L0,15.36C0,15.714,0.28600004,16,0.63999999,16L15.36,16C15.714,16,16,15.714,16,15.36L16,0.63999999C16,0.28600004,15.714,0,15.36,0ZM14.639999,14.639999L1.36,14.639999L1.36,1.36L14.639999,1.36L14.639999,14.639999Z" fill="currentColor"/></g></svg>