<svg xmlns="http://www.w3.org/2000/svg" xmlns:xlink="http://www.w3.org/1999/xlink" fill="none" version="1.1" width="16" height="16" viewBox="0 0 16 16"><defs><clipPath id="master_svg0_8_05750"><rect x="0" y="0" width="16" height="16" rx="0"/></clipPath></defs><g clip-path="url(#master_svg0_8_05750)"><path d="M13.295027,15L1.7053332,15C0.75776255,14.992692,-0.0044641402,14.253542,0.0022234237,13.348859L0.0022262889,5.0278339C-0.0038449143,4.1233907,0.7580263,3.3849163,1.7053373,3.3770242L3.6477742,3.3770242L3.6477742,2.6525806999999997C3.6420143,1.7465929999999998,4.4056625,1.0072125024,5.3545957,1L9.6457672,1C10.593981,1.0075018876,11.356391,1.74728978,11.34888,2.6525806999999997L11.34888,3.3770242L13.293173,3.3770242C14.240649,3.3858805,15.002995,4.1232104,14.999993,5.0278339L14.999993,7.7963052L11.924005,7.7963052C11.924005,7.4020762,11.589265,7.0824895,11.176341,7.0824895C10.763419,7.0824895,10.42868,7.4020762,10.42868,7.7963052L4.5716844,7.7963052C4.5716853,7.4020762,4.2369456,7.0824895,3.8240232,7.0824895C3.4111004,7.0824895,3.0763605,7.4020762,3.0763602,7.7963052L2.8719125,7.7963052C2.4248002,7.7963052,1.9739761,7.7963052,1.5398499,7.7998481C1.0352244,7.7963052,0.51575702,7.7963052,0,7.7963052L0,8.7722669L3.0741343,8.7722669L3.0741343,9.4913969C3.0741343,9.8856258,3.408874,10.2052116,3.8217959,10.2052116C4.2347183,10.2052116,4.569458,9.8856258,4.569458,9.4913969L4.569458,8.7722669L10.426453,8.7722669L10.426453,9.4913969C10.426453,9.8856258,10.761192,10.2052116,11.174116,10.2052116C11.587039,10.2052116,11.921778,9.8856258,11.921778,9.4913969L11.921778,8.7722669L14.994057,8.7722669L14.99405,13.348859C15.003106,14.252943,14.241994,14.992796,13.295027,15ZM5.3527412,1.9848178C4.9691882,1.98764455,4.6604319,2.2863872,4.662591,2.6525806999999997L4.662591,3.3770242L10.334064,3.3770242L10.334064,2.6543522C10.337871,2.2879169,10.029582,1.98803127,9.6457672,1.9848178L5.3527412,1.9848178Z" fill="currentColor"/></g></svg>