<svg xmlns="http://www.w3.org/2000/svg" xmlns:xlink="http://www.w3.org/1999/xlink" fill="none" version="1.1" width="16" height="16" viewBox="0 0 16 16"><defs><clipPath id="master_svg0_6_0167"><rect x="0" y="0" width="16" height="16" rx="0"/></clipPath></defs><g clip-path="url(#master_svg0_6_0167)"><g><path d="M0,8C0,3.5817149,3.5817142,0,8,0C12.418285,0,16,3.5817142,16,8C16,12.418285,12.418285,16,8,16C3.5817142,16,0,12.418284,0,8ZM10.668768,1.6812499C9.8241072,1.3239999,8.9262142,1.142857,8,1.142857C7.0737863,1.1428572,6.1758928,1.3240001,5.3312325,1.6812501C4.5148215,2.0265715,3.7813754,2.5211427,3.1512682,3.1512682C2.521143,3.7813754,2.0265539,4.5148215,1.6812502,5.3312325C1.3240002,6.1758928,1.1428573,7.0737863,1.1428573,8C1.1428573,8.9262142,1.3240002,9.8241253,1.6812502,10.668768C2.0265718,11.485178,2.521143,12.218624,3.1512682,12.848732C3.7813754,13.478857,4.5148215,13.973446,5.3312325,14.318749C6.1758928,14.676001,7.0737863,14.857142,8,14.857142C8.9262142,14.857142,9.8241253,14.676,10.668768,14.318749C11.485178,13.973428,12.218624,13.478857,12.848732,12.848732C13.478857,12.218624,13.973446,11.485178,14.318749,10.668768C14.676001,9.8241072,14.857142,8.9262142,14.857142,8C14.857142,7.0737863,14.676,6.1758752,14.318749,5.3312325C13.973428,4.5148211,13.478857,3.7813747,12.848732,3.1512673C12.218624,2.5211427,11.485178,2.0265534,10.668768,1.6812499ZM11.45171,5.38025L8.8200493,8.0119104L11.45171,10.643572C11.67487,10.866714,11.67487,11.228537,11.45171,11.451679C11.340137,11.563267,11.193888,11.619053,11.047655,11.619053C10.901423,11.619053,10.755173,11.563267,10.643602,11.451679L8.011941,8.8200188L5.3802805,11.451679C5.2687087,11.563267,5.1224589,11.619053,4.9762268,11.619053C4.8299947,11.619053,4.6837449,11.563267,4.5721731,11.451679C4.3490119,11.228535,4.3490119,10.866714,4.5721731,10.643572L7.2038341,8.0119104L4.5721555,5.3802676C4.3489947,5.1571069,4.3489947,4.7953033,4.5721555,4.5721426C4.7953162,4.3489814,5.1571198,4.3489814,5.3802805,4.5721426L8.011941,7.2038035L10.643602,4.572125C10.866745,4.3489642,11.228567,4.3489642,11.45171,4.572125C11.67487,4.7952857,11.67487,5.1570892,11.45171,5.38025Z" fill-rule="evenodd" fill="currentColor"/></g></g></svg>