<svg xmlns="http://www.w3.org/2000/svg" xmlns:xlink="http://www.w3.org/1999/xlink" fill="none" version="1.1" width="16" height="16" viewBox="0 0 16 16"><defs><clipPath id="master_svg0_8_05718"><rect x="0" y="0" width="16" height="16" rx="0"/></clipPath></defs><g clip-path="url(#master_svg0_8_05718)"><path d="M31.394046484375,9.333334L29.269062484375,10.413333L30.020556484375,12.713333L28.170269484374998,14.599998L25.915784484375,13.833333L24.853619584375,16L22.237448184375,16L21.174629684375,13.833334L18.920144784375,14.599999L17.070511184375,12.713335L17.822006484375,10.413334L15.697021484375,9.333334L15.697021484375,6.6666665L17.822006484375,5.5866666L17.070511184375,3.2866664L18.920144284375,1.4000001L21.174629684375,2.1666665L22.237448184375,0L24.853619584375,0L25.916440484375002,2.1666667L28.170926484375002,1.4000001L30.021212484375,3.2866671L29.269717484375,5.5866666L31.394046484375,6.666667L31.394046484375,9.333334ZM23.545534084375,5.333333C22.100663184375,5.333333,20.929364684375,6.5272408,20.929364684375,8C20.929364684375,9.4727583,22.100663184375,10.666666,23.545534584374998,10.666666C24.990406084375,10.666666,26.161705484375,9.4727583,26.161705484375,8C26.161705484375,6.5272408,24.990406084375,5.333333,23.545534084375,5.333333Z" fill="#FFFFFF" fill-opacity="0.800000011920929" transform="matrix(-1,0,0,1,31.39404296875,0)"/></g></svg>