<svg xmlns="http://www.w3.org/2000/svg" xmlns:xlink="http://www.w3.org/1999/xlink" fill="none" version="1.1" width="16" height="16" viewBox="0 0 16 16"><defs><clipPath id="master_svg0_8_05698"><rect x="0" y="0" width="16" height="16" rx="0"/></clipPath></defs><g clip-path="url(#master_svg0_8_05698)"><path d="M14.767080046875,7.200421783203125C15.314470046875,7.200421783203125,15.542987046875,6.497144183203125,15.098348046875,6.172964583203125C15.098348046875,6.172964583203125,8.333074546875,1.251798423203125,8.333074546875,1.251798423203125C8.236462146874999,1.181013543203125,8.119806246875001,1.142852783203125,8.000036246875,1.142852783203125C7.880267146875,1.1428527832031252,7.763613746875,1.181013543203125,7.667000246875,1.251798423203125C7.667000246875,1.251798423203125,0.901726286875,6.172964583203125,0.901726286875,6.172964583203125C0.45708535687499996,6.495373683203125,0.685606017875,7.200421783203125,1.2347641568749999,7.200421783203125C1.2347641568749999,7.200421783203125,2.3313089468749997,7.200421783203125,2.3313089468749997,7.200421783203125C2.3313089468749997,7.200421783203125,2.3313089468749997,13.825748783203125,2.3313089468749997,13.825748783203125C2.3313089468749997,13.825748783203125,1.055844696875,13.825748783203125,1.055844696875,13.825748783203125C0.977899726875,13.825748783203125,0.914126576875,13.889522783203125,0.914126576875,13.967465783203124C0.914126576875,13.967465783203124,0.914126576875,14.888635783203124,0.914126576875,14.888635783203124C0.914126576875,14.966583783203125,0.977899726875,15.030353783203125,1.055844696875,15.030353783203125C1.055844696875,15.030353783203125,14.944230046875,15.030353783203125,14.944230046875,15.030353783203125C15.022176046875,15.030353783203125,15.085948046875,14.966583783203125,15.085948046875,14.888635783203124C15.085948046875,14.888635783203124,15.085948046875,13.967465783203124,15.085948046875,13.967465783203124C15.085948046875,13.889522783203125,15.022176046875,13.825748783203125,14.944230046875,13.825748783203125C14.944230046875,13.825748783203125,13.668765046875,13.825748783203125,13.668765046875,13.825748783203125C13.668765046875,13.825748783203125,13.668765046875,7.200421783203125,13.668765046875,7.200421783203125C13.668765046875,7.200421783203125,14.767080046875,7.200421783203125,14.767080046875,7.200421783203125ZM5.679583046875,13.142853783203124C5.679583046875,13.142853783203124,3.999895546875,13.142853783203124,3.999895546875,13.142853783203124C3.999895546875,13.142853783203124,3.999895546875,7.200400383203125,3.999895546875,7.200400383203125C3.999895546875,7.200400383203125,5.679401446875,7.200421783203125,5.679401446875,7.200421783203125C5.679401446875,7.200421783203125,5.679583046875,13.142853783203124,5.679583046875,13.142853783203124ZM9.027239846875,13.142853783203124C9.027239846875,13.142853783203124,6.954694746875,13.142853783203124,6.954694746875,13.142853783203124C6.954694746875,13.142853783203124,6.954865946875,7.200421783203125,6.954865946875,7.200421783203125C6.954865946875,7.200421783203125,9.027494446875,7.200421783203125,9.027494446875,7.200421783203125C9.027494446875,7.200421783203125,9.027239846875,13.142853783203124,9.027239846875,13.142853783203124ZM11.999896046875,13.142853783203124C11.999896046875,13.142853783203124,10.302908946875,13.142853783203124,10.302908946875,13.142853783203124C10.302908946875,13.142853783203124,10.302958446875,7.200421783203125,10.302958446875,7.200421783203125C10.302958446875,7.200421783203125,11.999896046875,7.200400383203125,11.999896046875,7.200400383203125C11.999896046875,7.200400383203125,11.999896046875,13.142853783203124,11.999896046875,13.142853783203124Z" fill="currentColor"/></g></svg>