<svg xmlns="http://www.w3.org/2000/svg" xmlns:xlink="http://www.w3.org/1999/xlink" fill="none" version="1.1" width="16" height="16" viewBox="0 0 16 16"><defs><clipPath id="master_svg0_6_08590"><rect x="0" y="0" width="16" height="16" rx="0"/></clipPath></defs><g clip-path="url(#master_svg0_6_08590)"><path d="M14.5020693125,2.25L11.4995713125,2.25L11.4995713125,1C11.4995713125,0.72385764,11.2757133125,0.5,10.9995713125,0.5L4.9995704125,0.5C4.723427812500001,0.5,4.4995704125,0.72385764,4.4995704125,1L4.4995704125,2.25L1.4970703125,2.25C1.2209279525,2.25,0.9970703125,2.4738576,0.9970703125,2.75C0.9970703125,3.0261424,1.2209279525,3.25,1.4970703125,3.25L2.0245705125,3.25L3.2420704125,14.1665C3.3268647125,14.925688,3.9686625125,15.499883,4.732570212500001,15.5L11.2660713125,15.5C12.0300823125,15.499908,12.6720393125,14.925765,12.7570703125,14.1665L13.9745713125,3.25L14.5015713125,3.25C14.7776183125,3.2500031,15.0014383125,3.0262966,15.0015773125,2.7502494C15.0017143125,2.4742024000000002,14.7781183125,2.2502725,14.5020693125,2.25ZM5.4995704125,1.5L10.4995708125,1.5L10.4995708125,2.25L5.4995704125,2.25L5.4995704125,1.5ZM11.7635703125,14.0555C11.7352983125,14.308625,11.5212703125,14.500046,11.2665713125,14.5L4.732570212500001,14.5C4.4778705125,14.500046,4.2638421125,14.308626,4.2355699125,14.0555L3.0305703125,3.25L12.9685703125,3.25L11.7635703125,14.0555ZM9.4995708125,12.827C9.7757130125,12.827,9.9995708125,12.603142,9.9995708125,12.327L9.9995708125,4.9860001C9.9995708125,4.7098575,9.7757130125,4.4860001,9.4995708125,4.4860001C9.2234287125,4.4860001,8.9995708125,4.7098575,8.9995708125,4.9860001L8.9995708125,12.327C8.9995708125,12.603142,9.2234287125,12.827,9.4995708125,12.827ZM6.7495704125,12.827C7.0257130125,12.827,7.2495704125,12.603142,7.2495704125,12.327L7.2495704125,4.9860001C7.2495704125,4.7098575,7.0257130125,4.4860001,6.7495704125,4.4860001C6.4734278125,4.4860001,6.2495704125,4.7098575,6.2495704125,4.9860001L6.2495704125,12.327C6.2495704125,12.603142,6.4734278125,12.827,6.7495704125,12.827Z" fill="currentColor"/></g></svg>