<svg xmlns="http://www.w3.org/2000/svg" xmlns:xlink="http://www.w3.org/1999/xlink" fill="none" version="1.1" width="16" height="16" viewBox="0 0 16 16"><defs><clipPath id="master_svg0_6_04875"><rect x="0" y="0" width="16" height="16" rx="0"/></clipPath></defs><g clip-path="url(#master_svg0_6_04875)"><g><path d="M5.0969315,13.797668059604645L14.285365,5.0193305596046445Q15.071594,4.269959459604644,15.09694,3.1839898596046448Q15.122294,2.097668259604645,14.371996,1.3129199696046447Q13.622492,0.5261761546046447,12.536165,0.5008275806946447Q11.449847,0.4754792456046448,10.664193,1.2266405196046448L1.5052167,9.995878259604645C1.45492357,10.019755459604644,1.4077925100000002,10.052504559604644,1.3661731499999998,10.094123859604645C1.32996166,10.130334959604644,1.30046558,10.170719159604644,1.27768499,10.213728059604644L1.2641995000000001,10.226639759604645C1.18635345,10.301173259604644,1.13467371,10.398864759604646,1.11686152,10.505157059604645L0.5068761706,14.145157059604644C0.4977962375,14.199339059604645,0.4977082014,14.254648059604644,0.5066155194999999,14.308860059604644C0.521924427,14.402033059604644,0.56206888,14.484930059604645,0.6191684,14.551895059604645C0.7062061900000001,14.699012059604645,0.8664841400000001,14.797668059604645,1.04980469,14.797668059604645L14.999804,14.797668059604645C15.275947,14.797668059604645,15.499804,14.573811059604644,15.499804,14.297668059604645C15.499804,14.021526059604644,15.275947,13.797668059604645,14.999804,13.797668059604645L5.0969315,13.797668059604645ZM4.7373471,12.758190059604646L13.595086,4.295787159604645Q14.081535,3.832354559604645,14.097211,3.160658659604645Q14.112886,2.4889591596046445,13.647961,2.0026834596046448Q13.184531,1.5162287596046449,12.512837,1.5005553596046448Q11.841141,1.4848819396046449,11.355764,1.9489481596046447L2.4525062,10.473349659604645L4.7373471,12.758190059604646ZM3.8223083,13.257366059604644L1.9785659,11.413623059604644L1.6086431,13.621085059604646L3.8223083,13.257366059604644Z" fill-rule="evenodd" fill="currentColor"/></g></g></svg>