<svg xmlns="http://www.w3.org/2000/svg" xmlns:xlink="http://www.w3.org/1999/xlink" fill="none" version="1.1" width="16" height="16" viewBox="0 0 16 16"><defs><clipPath id="master_svg0_6_04862"><rect x="0" y="0" width="16" height="16" rx="0"/></clipPath></defs><g clip-path="url(#master_svg0_6_04862)"><g><path d="M1.54736328125,15.964449390625L13.78504928125,15.964449390625C14.06119128125,15.964449390625,14.28504928125,15.740592390625,14.28504928125,15.464449390625C14.28504928125,15.188307390625,14.06119128125,14.964449390625,13.78504928125,14.964449390625L2.04736328125,14.964449390625L2.04736328125,1.035400390625L8.98379178125,1.035400390625L13.42734928125,5.382929290625L13.42734928125,6.447047190625C13.42734928125,6.723189790625,13.65120728125,6.947047190625,13.92734928125,6.947047190625C14.20349128125,6.947047190625,14.42734928125,6.723189790625,14.42734928125,6.447047190625L14.42734928125,5.172615990625C14.42734928125,5.038114590625,14.37316028125,4.909285090625,14.27701928125,4.815221790625L9.53737828125,0.178006350625C9.44394298125,0.08659076662500001,9.31842418125,0.035400390625,9.18770698125,0.035400390625L1.54736328125,0.035400390625C1.27122089125,0.035400390625,1.04736328125,0.25925800062500004,1.04736328125,0.535400390625L1.04736328125,15.464449390625C1.04736328125,15.740592390625,1.27122089125,15.964449390625,1.54736328125,15.964449390625ZM11.23779328125,7.839355490625C11.23779328125,7.971445090625,11.29006128125,8.098168390625,11.38318228125,8.191848790625L13.10457928125,9.923583990625L4.9077148812499996,9.923583990625C4.63157248125,9.923583990625,4.4077148812499996,10.147441390625,4.4077148812499996,10.423584390625C4.4077148812499996,10.699726390625,4.63157248125,10.923584390625,4.9077148812499996,10.923584390625L13.27480428125,10.923584390625L11.41176528125,12.525865390625C11.30132128125,12.620851390625,11.23779328125,12.759280390625,11.23779328125,12.904951390625C11.23779328125,13.181094390625,11.46165128125,13.404951390625,11.73779328125,13.404951390625C11.85743528125,13.404951390625,11.97311128125,13.362051390625,12.06382128125,13.284037390625L14.77844028125,10.949364390625C14.98780428125,10.769304390625,15.01155828125,10.453615390625,14.83149928125,10.244251390625C14.82366228125,10.235138390625,14.81549728125,10.226310390625,14.80702428125,10.217785390625L12.09240328125,7.486862190625C11.99855028125,7.392445590625,11.87092028125,7.339355490625,11.73779328125,7.339355490625C11.46165128125,7.339355490625,11.23779328125,7.563212890625,11.23779328125,7.839355490625Z" fill-rule="evenodd" fill="currentColor"/></g></g></svg>