<svg xmlns="http://www.w3.org/2000/svg" xmlns:xlink="http://www.w3.org/1999/xlink" fill="none" version="1.1" width="16" height="16" viewBox="0 0 16 16"><defs><clipPath id="master_svg0_8_05655"><rect x="0" y="0" width="16" height="16" rx="0"/></clipPath></defs><g clip-path="url(#master_svg0_8_05655)"><path d="M15.668859,7.4298248C15.668859,7.4298248,8.3992004,0.1654602,8.3992004,0.1654602C8.178586,-0.055153396,7.8220754,-0.055153396,7.6014614,0.1654602C7.6014614,0.1654602,0.33180282,7.4298248,0.33180282,7.4298248C0.12001377,7.641614,0,7.9292936,0,8.2293282C0,8.8523407,0.50652874,9.3588696,1.1295414,9.3588696C1.1295414,9.3588696,1.895512,9.3588696,1.895512,9.3588696C1.895512,9.3588696,1.895512,14.542406,1.895512,14.542406C1.895512,14.854795,2.1478939,15.107177,2.4602828,15.107177C2.4602828,15.107177,6.8707891,15.107177,6.8707891,15.107177C6.8707891,15.107177,6.8707891,11.153782,6.8707891,11.153782C6.8707891,11.153782,8.8474865,11.153782,8.8474865,11.153782C8.8474865,11.153782,8.8474865,15.107177,8.8474865,15.107177C8.8474865,15.107177,13.54038,15.107177,13.54038,15.107177C13.852768,15.107177,14.105151,14.854795,14.105151,14.542406C14.105151,14.542406,14.105151,9.3588696,14.105151,9.3588696C14.105151,9.3588696,14.871119,9.3588696,14.871119,9.3588696C15.171154,9.3588696,15.458835,9.2406216,15.670624,9.0270672C16.110086,8.5858402,16.110086,7.8710518,15.668859,7.4298248C15.668859,7.4298248,15.668859,7.4298248,15.668859,7.4298248Z" fill="currentColor"/></g></svg>