<svg xmlns="http://www.w3.org/2000/svg" xmlns:xlink="http://www.w3.org/1999/xlink" fill="none" version="1.1" width="16" height="16" viewBox="0 0 16 16"><defs><clipPath id="master_svg0_8_05692"><rect x="0" y="0" width="16" height="16" rx="0"/></clipPath></defs><g clip-path="url(#master_svg0_8_05692)"><path d="M13.750001,1.75C13.750001,1.75,2.25,1.75,2.25,1.75C1.97343749,1.75,1.75,1.97343749,1.75,2.25C1.75,2.25,1.75,13.750001,1.75,13.750001C1.75,14.026563,1.97343749,14.250001,2.25,14.250001C2.25,14.250001,13.750001,14.250001,13.750001,14.250001C14.026563,14.250001,14.250001,14.026563,14.250001,13.750001C14.250001,13.750001,14.250001,2.25,14.250001,2.25C14.250001,1.97343749,14.026563,1.75,13.750001,1.75ZM5.9375,10.875C5.5921874,10.875,5.312500200000001,10.5953131,5.312500200000001,10.25C5.312500200000001,9.9046879,5.5921874,9.625000499999999,5.9375,9.625000499999999C6.2828126,9.625000499999999,6.5625,9.9046879,6.5625,10.25C6.5625,10.5953131,6.2828126,10.875,5.9375,10.875ZM5.9375,8.625000499999999C5.5921874,8.625000499999999,5.312500200000001,8.3453126,5.312500200000001,8.000000499999999C5.312500200000001,7.6546874,5.5921874,7.3750005,5.9375,7.3750005C6.2828126,7.3750005,6.5625,7.6546874,6.5625,8.000000499999999C6.5625,8.3453126,6.2828126,8.625000499999999,5.9375,8.625000499999999ZM5.9375,6.375C5.5921874,6.375,5.312500200000001,6.0953126,5.312500200000001,5.75C5.312500200000001,5.4046874,5.5921874,5.125000200000001,5.9375,5.125000200000001C6.2828126,5.125000200000001,6.5625,5.4046874,6.5625,5.75C6.5625,6.0953126,6.2828126,6.375,5.9375,6.375ZM10.6875,10.625C10.6875,10.6937504,10.6312504,10.75,10.5625,10.75C10.5625,10.75,7.6875005,10.75,7.6875005,10.75C7.6187501,10.75,7.5625005,10.6937504,7.5625005,10.625C7.5625005,10.625,7.5625005,9.875,7.5625005,9.875C7.5625005,9.8062506,7.6187501,9.75,7.6875005,9.75C7.6875005,9.75,10.5625,9.75,10.5625,9.75C10.6312504,9.75,10.6875,9.8062506,10.6875,9.875C10.6875,9.875,10.6875,10.625,10.6875,10.625ZM10.6875,8.375000499999999C10.6875,8.4437499,10.6312504,8.500000499999999,10.5625,8.500000499999999C10.5625,8.500000499999999,7.6875005,8.500000499999999,7.6875005,8.500000499999999C7.6187501,8.500000499999999,7.5625005,8.4437499,7.5625005,8.375000499999999C7.5625005,8.375000499999999,7.5625005,7.6250005,7.5625005,7.6250005C7.5625005,7.5562501,7.6187501,7.5000005,7.6875005,7.5000005C7.6875005,7.5000005,10.5625,7.5000005,10.5625,7.5000005C10.6312504,7.5000005,10.6875,7.5562501,10.6875,7.6250005C10.6875,7.6250005,10.6875,8.375000499999999,10.6875,8.375000499999999ZM10.6875,6.125C10.6875,6.1937499,10.6312504,6.25,10.5625,6.25C10.5625,6.25,7.6875005,6.25,7.6875005,6.25C7.6187501,6.25,7.5625005,6.1937499,7.5625005,6.125C7.5625005,6.125,7.5625005,5.375000200000001,7.5625005,5.375000200000001C7.5625005,5.3062501,7.6187501,5.250000200000001,7.6875005,5.250000200000001C7.6875005,5.250000200000001,10.5625,5.250000200000001,10.5625,5.250000200000001C10.6312504,5.250000200000001,10.6875,5.3062501,10.6875,5.375000200000001C10.6875,5.375000200000001,10.6875,6.125,10.6875,6.125Z" fill="currentColor"/></g></svg>