<svg xmlns="http://www.w3.org/2000/svg" xmlns:xlink="http://www.w3.org/1999/xlink" fill="none" version="1.1" width="16" height="16" viewBox="0 0 16 16"><defs><clipPath id="master_svg0_8_05666"><rect x="0" y="0" width="16" height="16" rx="0"/></clipPath><clipPath id="master_svg1_8_05671"><rect x="0" y="0" width="16" height="16" rx="0"/></clipPath></defs><g clip-path="url(#master_svg0_8_05666)"><g clip-path="url(#master_svg1_8_05671)"><path d="M13.76744,1L2.2325578,1C1.0046511,1,0,1.99473697,0,3.2105265L0,9.842104C0,11.057895,1.0046511,12.052632,2.2325578,12.052632L7.2558131,12.052632L7.2558131,13.526318L3.4232554,13.526318C3.0139532,13.526318,2.6790698,13.857896,2.6790698,14.263159C2.6790698,14.668423,3.0139532,15,3.4232554,15L12.613953,15C13.023254,15,13.358139,14.668423,13.358139,14.263159C13.358139,13.857896,13.023254,13.526318,12.613953,13.526318L8.7441854,13.526318L8.7441854,12.052632L13.76744,12.052632C14.995349,12.052632,16,11.057895,16,9.8421059L16,3.210526C16,1.99473661,14.995349,0.99999983135024,13.76744,1ZM5.7302322,9.1052628C5.7302322,9.5105257,5.3953481,9.842104,4.9860458,9.842104L4.9488363,9.842104C4.5395346,9.842104,4.2046509,9.5105257,4.2046509,9.1052628L4.2046509,3.9473684C4.2046509,3.5421054,4.5395346,3.2105265,4.9488363,3.2105265L4.9860458,3.2105265C5.3953481,3.2105265,5.7302322,3.5421054,5.7302322,3.9473684L5.7302322,9.1052628ZM8.7441854,9.1052628C8.7441854,9.5105257,8.4093018,9.842104,7.999999,9.842104L7.9627891,9.842104C7.5534873,9.842104,7.2186036,9.5105257,7.2186036,9.1052628L7.2186036,5.0526309C7.2186036,4.6473682,7.5534873,4.3157892,7.9627891,4.3157892L7.999999,4.3157892C8.4093018,4.3157892,8.7441854,4.6473682,8.7441854,5.0526309L8.7441854,9.1052628ZM11.795348,9.1052628C11.795348,9.5105257,11.460464,9.842104,11.051162,9.842104L11.013952,9.842104C10.60465,9.842104,10.269767,9.5105257,10.269767,9.1052628L10.269767,6.1578941C10.269767,5.7526317,10.60465,5.421052,11.013952,5.421052L11.051162,5.421052C11.460464,5.421052,11.795348,5.7526317,11.795348,6.1578941L11.795348,9.1052628Z" fill="#FFFFFF" fill-opacity="0.800000011920929"/></g></g></svg>