<svg xmlns="http://www.w3.org/2000/svg" xmlns:xlink="http://www.w3.org/1999/xlink" fill="none" version="1.1" width="16" height="16" viewBox="0 0 16 16"><defs><clipPath id="master_svg0_6_17405"><rect x="0" y="0" width="16" height="16" rx="0"/></clipPath></defs><g clip-path="url(#master_svg0_6_17405)"><path d="M5.999999799999999,9.90104669L3.2190776000000003,13L2,12.098002000000001L4.7798741,9L5.999999799999999,9.90104669Z" fill="currentColor"/><path d="M4.78181821,8.7840894L7.4743797999999995,11.0198889L6.6917352999999995,12L4,9.7650435L4.78181821,8.7840894ZM9.385950600000001,7L14,10.8311145L13.2173548,11.8112259L8.603305800000001,7.97926873L9.385950600000001,7Z" fill="currentColor"/><path d="M9.9999998,7.80118501L6.89375597,12L6,11.1979694L9.1062438,7L9.9999998,7.80118501Z" fill="currentColor"/><path d="M16,15L0,15L0,1L16,1L16,15ZM1.3043479,13.670886L14.695652,13.670886L14.695652,2.3291139999999997L1.3043479,2.3291139999999997L1.3043479,13.670886Z" fill="currentColor"/><path d="M4.5,7C3.6818180099999998,7,3,6.318182,3,5.5C3,4.68181801,3.6818180099999998,4,4.5,4C5.318182,4,6,4.68181801,6,5.5C6,6.318182,5.318182,7,4.5,7ZM4.5,5.0227273C4.2272725,5.0227273,4.0227273,5.2272725,4.0227273,5.5C4.0227273,5.7727275,4.2272725,5.9772727,4.5,5.9772727C4.7727275,5.9772727,4.9772727,5.7727275,4.9772727,5.5C4.9772727,5.2272725,4.7727275,5.0227273,4.5,5.0227273Z" fill="currentColor"/></g></svg>