<svg xmlns="http://www.w3.org/2000/svg" xmlns:xlink="http://www.w3.org/1999/xlink" fill="none" version="1.1" width="16" height="16" viewBox="0 0 16 16"><defs><clipPath id="master_svg0_8_05681"><rect x="0" y="0" width="16" height="16" rx="0"/></clipPath></defs><g clip-path="url(#master_svg0_8_05681)"><path d="M9.238172500000001,1.14289915561725L9.238172500000001,3.44766520078125C9.238172500000001,4.09527440078125,9.7524538,4.628603000781251,10.4000788,4.6667118007812505L12.7048445,4.6667118007812505L12.7048445,8.095274000781249C12.5143765,8.057180400781249,12.3048445,8.057180400781249,12.0953135,8.057180400781249C9.9810324,8.057180400781249,8.2667499,9.79050830078125,8.2667499,11.92385330078125C8.2667499,13.12385130078125,8.8000779,14.19050930078125,9.6572189,14.89527530078125L2.9143594999999998,14.89527530078125C2.24770314,14.89527530078125,1.714359287,14.38099330078125,1.6953125,13.73336930078125L1.6953125,2.3619461007812497C1.6953125,1.71432114078125,2.20960933,1.18099296078125,2.8572189999999997,1.14288365840915L9.238172500000001,1.14289915561725L9.238172500000001,1.14289915561725ZM7.5810313,5.84766530078125L3.5238907,5.84766530078125C3.429049,5.84726480078125,3.3520617,5.92424540078125,3.3524531,6.01908680078125L3.3524531,6.83814910078125C3.3520705,6.93298480078125,3.4290555,7.00995540078125,3.5238907,7.00955490078125L7.5810161,7.00955490078125C7.6758456,7.00994680078125,7.752821,6.93297860078125,7.7524385,6.83814910078125L7.7524385,6.01908680078125C7.7524385,5.90480570078125,7.67625,5.84766530078125,7.5810161,5.84766530078125L7.5810313,5.84766530078125ZM7.5810313,3.35241460078125L3.5238907,3.35241460078125C3.4290431,3.35201430078125,3.3520529,3.42900440078125,3.3524531,3.52385230078125L3.3524531,4.34289910078125C3.3520615,4.43774080078125,3.4290491000000003,4.51472190078125,3.5238907,4.5143213007812495L7.5810161,4.5143213007812495C7.6758513,4.51471260078125,7.7528291,4.43773440078125,7.7524385,4.34289910078125L7.7524385,3.52383690078125C7.752821,3.42900750078125,7.6758456,3.35203890078125,7.5810161,3.35243030078125L7.5810313,3.35241460078125ZM10.1334076,1.14288330078125L12.7429385,3.73336770078125L10.742939,3.73336770078125C10.4000797,3.73336770078125,10.1334076,3.46671180078125,10.1334076,3.12383660078125L10.1334076,1.14291477203325L10.1334076,1.14288330078125Z" fill="#FFFFFF" fill-opacity="0.800000011920929"/><path d="M12.1334829,9.16192626953125C13.6382484,9.16192626953125,14.8763433,10.40001966953125,14.8763433,11.92383316953125C14.8763433,12.53336456953125,14.685874,13.10477086953125,14.3430152,13.56192686953125L14.9906249,14.209551769531249C15.200155299999999,14.41906736953125,15.200155299999999,14.761927169531251,14.9906249,14.990488969531249C14.7811093,15.200020269531251,14.438250100000001,15.200020269531251,14.2096877,14.990488969531249L13.5239692,14.30478576953125C13.1239691,14.55239536953125,12.6287348,14.68572376953125,12.1335003,14.68572376953125C10.6287346,14.68572376953125,9.390625,13.447645169531249,9.390625,11.92383316953125C9.390625,10.40002056953125,10.6096878,9.16192722320557,12.1334829,9.16192626953125ZM12.1334829,10.26669216953125C11.2192022,10.26669216953125,10.495389,11.00955116953125,10.495389,11.92383316953125C10.495389,12.83811476953125,11.238248,13.58095736953125,12.1334829,13.58095736953125C13.0287182,13.58095736953125,13.7715774,12.83809776953125,13.7715774,11.923816869531251C13.7715774,11.00953586953125,13.0287335,10.26667596953125,12.1334829,10.26667596953125L12.1334829,10.26669216953125Z" fill="#FFFFFF" fill-opacity="0.800000011920929"/></g></svg>