<svg xmlns="http://www.w3.org/2000/svg" xmlns:xlink="http://www.w3.org/1999/xlink" fill="none" version="1.1" width="16" height="16" viewBox="0 0 16 16"><defs><clipPath id="master_svg0_6_04938"><rect x="-0.5" y="-0.5" width="17" height="17" rx="0"/></clipPath></defs><g clip-path="url(#master_svg0_6_04938)"><path d="M15.9699674375,5.8115181703125Q15.9699664375,5.7128114703125,15.9324574375,5.6215095703125Q15.8949474375,5.5302076703125,15.8255554375,5.4600100703125L10.5982534375,0.17205143031249998Q10.5278072375,0.10078758031250001,10.4353389375,0.06217360031250002Q10.3428726375,0.023559630312500024,10.2426662375,0.023559600312499984L0.5302734375,0.023559600312499984Q0.4810277405,0.023559630312500024,0.4327282905,0.03316700031249997Q0.3844288475,0.04277438031250003,0.33893175750000004,0.061619880312499986Q0.29343464750000003,0.0804653803125,0.2524883775,0.10782486031249999Q0.2115420675,0.1351842903125,0.1767200875,0.1700062203125Q0.1418981575,0.2048282003125,0.11453869750000001,0.2457744803125Q0.0871792475,0.28672078031250003,0.06833374749999999,0.33221789031250004Q0.04948824750000003,0.3777149803125,0.03988086749999997,0.4260144233125Q0.030273497500000024,0.4743138733125,0.030273467499999984,0.5235595703125L0.030273467499999984,15.4764385703125Q0.030273497500000024,15.5256835703125,0.03988086749999997,15.5739825703125Q0.04948824750000003,15.6222815703125,0.06833374749999999,15.6677775703125Q0.0871792475,15.7132745703125,0.11453872749999999,15.7542205703125Q0.1418981575,15.7951675703125,0.1767200875,15.8299905703125Q0.2115420675,15.8648115703125,0.2524883475,15.8921715703125Q0.29343464750000003,15.9195305703125,0.33893175750000004,15.9383775703125Q0.3844288475,15.9572235703125,0.4327282905,15.9668305703125Q0.4810277405,15.9764385703125,0.5302734375,15.9764385703125L15.4699684375,15.9764385703125Q15.5192144375,15.9764385703125,15.5675124375,15.9668315703125Q15.6158124375,15.9572235703125,15.6613084375,15.9383775703125Q15.7068054375,15.9195305703125,15.7477524375,15.8921715703125Q15.7886984375,15.8648125703125,15.8235204375,15.8299915703125Q15.8583424375,15.7951685703125,15.8857014375,15.7542215703125Q15.9130614375,15.7132755703125,15.9319054375,15.6677785703125Q15.9507524375,15.6222815703125,15.9603594375,15.5739825703125Q15.9699664375,15.5256835703125,15.9699674375,15.4764385703125L15.9699674375,5.8115181703125ZM14.9699684375,6.0169372703125L10.0338678375,1.0235595403125L1.0302734075,1.0235595403125L1.0302734075,14.9764385703125L14.9699684375,14.9764385703125L14.9699684375,6.0169372703125Z" fill-rule="evenodd" fill="currentColor"/><path d="M2.39463124,0.7958145141601562Q2.39463127,0.7465786601601563,2.4042367000000002,0.6982888651601562Q2.41384214,0.6499990641601563,2.43268389,0.6045110841601562Q2.45152563,0.5590230841601562,2.4788796,0.5180849741601563Q2.50623357,0.4771468641601562,2.54104859,0.44233185416015625Q2.5758636,0.40751683416015627,2.61680171,0.38016289416015625Q2.65773982,0.35280892416015625,2.70322782,0.33396717416015625Q2.7487158,0.3151254041601563,2.797005601,0.30551996416015625Q2.845295396,0.29591453416015623,2.89453125,0.29591450416015624Q2.943767104,0.29591453416015623,2.992056899,0.30551996416015625Q3.0403467,0.3151254041601563,3.08583468,0.33396715416015627Q3.13132268,0.35280889416015626,3.17226079,0.38016286416015627Q3.2131989,0.40751683416015627,3.24801391,0.44233185416015625Q3.28282893,0.4771468641601562,3.31018287,0.5180849741601563Q3.33753684,0.5590230841601562,3.35637859,0.6045110841601562Q3.37522036,0.6499990641601563,3.3848257999999998,0.6982888651601562Q3.39443123,0.7465786601601563,3.39443126,0.7958145141601562L3.39453125,0.7958145141601562L3.39453125,3.353406414160156L7.43097975,3.353406414160156L7.43097975,0.8691129381601562L7.43107935,0.8691129381601562Q7.43107895,0.8198770821601562,7.44068435,0.7715872861601563Q7.45028975,0.7232974921601563,7.46913145,0.6778095041601563Q7.48797325,0.6323215041601562,7.51532745,0.5913833941601563Q7.54268125,0.5504452841601563,7.57749655,0.5156302741601563Q7.61231135,0.4808152941601562,7.65324925,0.4534613241601563Q7.69418715,0.4261073441601563,7.73967555,0.4072656041601562Q7.78516345,0.38842386416015623,7.83345315,0.3788183941601562Q7.88174345,0.36921295416015626,7.93097925,0.3692129241601563Q7.98021505,0.36921295416015626,8.02850435,0.37881842416015626Q8.07679415,0.38842386416015623,8.122282049999999,0.4072656041601562Q8.16777035,0.4261073441601563,8.20870825,0.45346129416015624Q8.24964615,0.4808152941601562,8.28446145,0.5156302741601563Q8.31927685,0.5504452841601563,8.34663055,0.5913833841601562Q8.37398435,0.6323215041601562,8.39282605,0.6778095041601563Q8.41166785,0.7232974921601563,8.421273249999999,0.7715872841601562Q8.43087865,0.8198770821601562,8.430879149999999,0.8691129381601562L8.43097925,0.8691129381601562L8.43097925,3.853406414160156Q8.430978750000001,3.9026518141601563,8.421371449999999,3.9509513141601564Q8.411763650000001,3.999250614160156,8.39291815,4.044747814160156Q8.37407305,4.090244814160156,8.34671355,4.131191214160156Q8.319354050000001,4.172137714160156,8.28453255,4.206959714160156Q8.249710050000001,4.241781514160156,8.20876405,4.269140914160156Q8.167818050000001,4.296500214160156,8.122320649999999,4.315346014160156Q8.076823749999999,4.334191314160156,8.02852435,4.343798614160156Q7.98022465,4.353406214160156,7.93097925,4.3534064141601565L2.89453125,4.3534064141601565Q2.84528555,4.353406214160156,2.796986096,4.343798614160156Q2.74868664,4.334191314160156,2.70318955,4.315345714160156Q2.65769246,4.296500214160156,2.61674619,4.269140714160156Q2.57579988,4.241781514160156,2.5409779,4.206959714160156Q2.50615594,4.172137714160156,2.47879651,4.131191214160156Q2.45143706,4.090244814160156,2.43259153,4.044747814160156Q2.413746,3.999250614160156,2.40413865,3.9509511141601563Q2.39453128,3.9026518141601563,2.39453125,3.853406414160156L2.39453125,0.7958145141601562L2.39463124,0.7958145141601562Z" fill-rule="evenodd" fill="currentColor"/><path d="M12.20228198125,12.374343872070312L12.20228198125,15.015705072070313L12.20238208125,15.015705072070313Q12.20238118125,15.064940972070312,12.21198658125,15.113230472070313Q12.22159198125,15.161519972070312,12.24043368125,15.207008172070312Q12.25927548125,15.252496272070312,12.28662968125,15.293434372070312Q12.31398388125,15.334372472070312,12.34879878125,15.369187572070313Q12.38361358125,15.404002672070312,12.42455098125,15.431356672070311Q12.46548848125,15.458710472070312,12.51097678125,15.477552172070313Q12.55646518125,15.496394172070312,12.60475538125,15.505999572070312Q12.65304568125,15.515604972070312,12.70228198125,15.515605172070313Q12.75151728125,15.515604972070312,12.79980658125,15.505999572070312Q12.84809688125,15.496394172070312,12.89358378125,15.477552172070313Q12.93907178125,15.458710472070312,12.98001078125,15.431356472070313Q13.02094878125,15.404002672070312,13.05576278125,15.369187572070313Q13.09057778125,15.334372472070312,13.11793278125,15.293434372070312Q13.14528678125,15.252496272070312,13.16412878125,15.207008172070312Q13.18296978125,15.161519972070312,13.19257578125,15.113230472070313Q13.20218078125,15.064940972070312,13.20218178125,15.015705072070313L13.20228178125,15.015705072070313L13.20228178125,11.874343872070312Q13.20228078125,11.825098172070312,13.19267378125,11.776798718070312Q13.18306578125,11.728499262070313,13.16422078125,11.683002172070312Q13.14537478125,11.637505082070312,13.11801578125,11.596558812070313Q13.09065578125,11.555612502070312,13.05583478125,11.520790522070312Q13.02101278125,11.485968562070312,12.98006678125,11.458609132070313Q12.93911978125,11.431249682070312,12.89362278125,11.412404152070312Q12.84812548125,11.393558622070312,12.79982568125,11.383951272070313Q12.75152688125,11.374343902070313,12.70228198125,11.374343872070312L2.85205078125,11.374343872070312Q2.80280508125,11.374343902070313,2.75450562725,11.383951272070313Q2.70620617125,11.393558652070313,2.66070908125,11.412404182070313Q2.61521199125,11.431249682070312,2.57426572125,11.458609102070312Q2.53331941125,11.485968562070312,2.49849743125,11.520790522070312Q2.46367547125,11.555612502070312,2.43631604125,11.596558782070312Q2.40895659125,11.637505082070312,2.39011106125,11.683002172070312Q2.37126553125,11.728499262070313,2.36165818125,11.776798718070312Q2.35205081125,11.825098172070312,2.35205078125,11.874343872070312L2.35205078125,15.193715772070313L2.35215077125,15.193715772070313Q2.35215080125,15.242951372070312,2.3617562312500002,15.291241172070313Q2.37136167125,15.339530972070312,2.39020342125,15.385018872070312Q2.40904516125,15.430506972070312,2.43639913125,15.471445072070313Q2.46375310125,15.512383272070313,2.49856812125,15.547198272070313Q2.53338313125,15.582013172070312,2.57432124125,15.609367172070312Q2.61525935125,15.636721172070313,2.66074735125,15.655563072070311Q2.70623533125,15.674404572070312,2.75452513225,15.684010272070312Q2.80281492725,15.693615872070312,2.85205078125,15.693615872070312Q2.90128663525,15.693615872070312,2.94957643025,15.684010272070312Q2.99786623125,15.674404572070312,3.04335421125,15.655562872070313Q3.08884221125,15.636721172070313,3.12978032125,15.609367172070312Q3.17071843125,15.582013172070312,3.20553344125,15.547198272070313Q3.24034846125,15.512383272070313,3.26770240125,15.471445072070313Q3.29505637125,15.430507172070312,3.31389812125,15.385019072070312Q3.33273989125,15.339530972070312,3.3423453312499998,15.291241172070313Q3.35195076125,15.242951372070312,3.35195079125,15.193715772070313L3.35205078125,15.193715772070313L3.35205078125,12.374343872070312L12.20228198125,12.374343872070312Z" fill-rule="evenodd" fill="currentColor"/></g></svg>