<svg xmlns="http://www.w3.org/2000/svg" xmlns:xlink="http://www.w3.org/1999/xlink" fill="none" version="1.1" width="16" height="16" viewBox="0 0 16 16"><defs><clipPath id="master_svg0_8_05643"><rect x="0" y="0" width="16" height="16" rx="0"/></clipPath></defs><g clip-path="url(#master_svg0_8_05643)"><path d="M15.36,0C15.36,0,0.63999999,0,0.63999999,0C0.28599998,0,0,0.28599998,0,0.63999999C0,0.63999999,0,15.36,0,15.36C0,15.714001,0.28599998,16,0.63999999,16C0.63999999,16,15.36,16,15.36,16C15.714001,16,16,15.714001,16,15.36C16,15.36,16,0.63999999,16,0.63999999C16,0.28599998,15.714001,0,15.36,0ZM5.8399997,11.42C5.8399997,11.42,5.8399997,12.96,5.8399997,12.96C5.8399997,13.048,5.7680001,13.12,5.6799998,13.12C5.6799998,13.12,4.7199998,13.12,4.7199998,13.12C4.632,13.12,4.5599999,13.048,4.5599999,12.96C4.5599999,12.96,4.5599999,11.42,4.5599999,11.42C3.7260003,11.148,3.1199999,10.364,3.1199999,9.4399996C3.1199999,8.5159998,3.7260003,7.73,4.5599999,7.46C4.5599999,7.46,4.5599999,3.04,4.5599999,3.04C4.5599999,2.9520001,4.632,2.8799999,4.7199998,2.8799999C4.7199998,2.8799999,5.6799998,2.8799999,5.6799998,2.8799999C5.7680001,2.8799999,5.8399997,2.9520001,5.8399997,3.04C5.8399997,3.04,5.8399997,7.46,5.8399997,7.46C6.6740003,7.7320004,7.2799997,8.5159998,7.2799997,9.4399996C7.2799997,10.364,6.6740003,11.15,5.8399997,11.42ZM11.431999,8.5419989C11.436,8.5419989,11.438001,8.54,11.44,8.54C11.44,8.54,11.44,12.96,11.44,12.96C11.44,13.048,11.368,13.12,11.28,13.12C11.28,13.12,10.32,13.12,10.32,13.12C10.232,13.12,10.16,13.048,10.16,12.96C10.16,12.96,10.16,8.54,10.16,8.54C10.164,8.54,10.166,8.5419989,10.168,8.5419989C9.3280001,8.2740002,8.7200003,7.4879999,8.7200003,6.5599999C8.7200003,5.632,9.3280001,4.8459997,10.168,4.5779996C10.164001,4.5779996,10.162001,4.5799999,10.16,4.5799999C10.16,4.5799999,10.16,3.04,10.16,3.04C10.16,2.9520001,10.232,2.8799999,10.32,2.8799999C10.32,2.8799999,11.28,2.8799999,11.28,2.8799999C11.368,2.8799999,11.44,2.9520001,11.44,3.04C11.44,3.04,11.44,4.5799999,11.44,4.5799999C11.436001,4.5799999,11.434,4.5779996,11.431999,4.5779996C12.271999,4.8459997,12.88,5.632,12.88,6.5599999C12.88,7.4879999,12.271999,8.2740002,11.431999,8.5419989Z" fill="#FFFFFF" fill-opacity="0.800000011920929"/><path d="M9.800000190734863,6.5C9.800000190734863,6.7652166000000005,9.905356270734863,7.0195705,10.092892650734864,7.2071067C10.280429030734863,7.3946432,10.534783720734863,7.5,10.800000190734863,7.5C11.065216790734864,7.5,11.319571490734862,7.3946432,11.507107690734863,7.2071067C11.694644190734863,7.0195705,11.800000190734863,6.7652166000000005,11.800000190734863,6.5C11.800000190734863,6.23478353,11.694644190734863,5.98042971,11.507107690734863,5.79289332C11.319571490734862,5.60535693,11.065216790734864,5.5,10.800000190734863,5.5C10.534783720734863,5.5,10.280429030734863,5.60535693,10.092892650734864,5.79289332C9.905356270734863,5.98042971,9.800000190734863,6.23478353,9.800000190734863,6.5Z" fill="#FFFFFF" fill-opacity="0.800000011920929"/><path d="M6.072575809265137,9.01253521C6.072575809265137,9.01253521,6.0310246092651365,8.94568214,6.0310246092651365,8.94568214C6.0310246092651365,8.94289663,6.028254409265137,8.94289801,6.028254409265137,8.94011247C6.028254409265137,8.94011247,6.003323809265137,8.90668598,6.003323809265137,8.90668598C6.000553809265137,8.90390047,5.997784109265137,8.9011153,5.997784109265137,8.89832979C5.970083209265137,8.86211812,5.942382209265137,8.82869095,5.909141209265137,8.79805028C5.909141209265137,8.79805028,5.903600709265136,8.79247892,5.903600709265136,8.79247892C5.892520209265137,8.78133687,5.881440509265136,8.77019548,5.870360109265137,8.76183894C5.848199509265137,8.73955484,5.823268509265136,8.72005692,5.798337909265137,8.70334384C5.798337909265137,8.70334384,5.795567609265136,8.70334384,5.795567609265136,8.70334384C5.795567609265136,8.70334384,5.762326909265137,8.67827354,5.762326909265137,8.67827354C5.7595571092651365,8.67548802,5.754016209265137,8.67270285,5.751246009265136,8.66991733C5.718005209265137,8.64763324,5.681994209265136,8.62534879,5.6432130092651365,8.6086357C5.637672909265136,8.60585019,5.629363109265137,8.60306399,5.623822909265137,8.597492978C5.612742709265136,8.59192194,5.604432109265137,8.589136429,5.593351809265137,8.583565407C5.5850416092651365,8.580779888,5.5739612092651365,8.575209886,5.565651009265137,8.572424367C5.5518007092651365,8.566853344,5.5379503092651365,8.561282322,5.524099909265137,8.558496799C5.513019409265137,8.555711295,5.499168609265137,8.550139584,5.488088209265136,8.547354069C5.488088209265136,8.547354069,5.463157609265137,8.538997866,5.463157609265137,8.538997866C5.449307309265137,8.536212355,5.438227209265136,8.533427183,5.424376709265137,8.530641669C5.4188365092651365,8.527856154,5.410525909265137,8.527855814,5.404985909265137,8.5250703C5.385595209265137,8.522284789,5.366205309265137,8.516713081,5.346814609265136,8.513927567C5.341274609265136,8.513927567,5.335734209265137,8.513928249,5.330194009265137,8.511142734C5.313573609265137,8.5083572203,5.299722809265137,8.5083568813,5.283102309265137,8.5055713672C5.277562109265137,8.5055713672,5.2720225092651365,8.5055720476,5.263712309265137,8.5027865337C5.241551509265137,8.5027865337,5.222160409265137,8.5,5.199999809265137,8.5C5.177839219265136,8.5,5.158448939265137,8.500001020044,5.136288229265137,8.5027865337C5.130748149265137,8.5027865337,5.125207659265136,8.5027858536,5.116897349265137,8.5055713672C5.100276889265137,8.5055713672,5.083656849265137,8.5083572203,5.069806459265137,8.511142734C5.064266319265137,8.511142734,5.058725949265137,8.511142054,5.053185819265137,8.513927567C5.0337951792651365,8.516713081,5.014404419265137,8.519499276,4.995013889265136,8.5250703C4.989473699265137,8.527855814,4.981163139265137,8.527856154,4.975622889265137,8.530641669C4.961772499265137,8.533427183,4.950692359265137,8.536212355,4.936841969265137,8.538997866C4.936841969265137,8.538997866,4.911911369265137,8.547354069,4.911911369265137,8.547354069C4.900831039265137,8.550139584,4.886980949265137,8.555711295,4.875900689265137,8.558496799C4.862050299265137,8.564067826,4.848199849265137,8.569638856,4.834349449265137,8.572424367C4.826039139265137,8.575209886,4.814958869265137,8.580779888,4.806648609265137,8.583565407C4.795568289265137,8.589136429,4.787257849265137,8.59192194,4.776177469265137,8.597492978C4.770637329265137,8.60027848,4.762326779265137,8.60306468,4.756786589265137,8.6086357C4.720775549265137,8.6281343,4.684764619265136,8.64763324,4.648753549265137,8.66991733C4.645983459265136,8.67270285,4.640443439265137,8.67548802,4.637673379265137,8.67827354C4.637673379265137,8.67827354,4.604432049265137,8.70334384,4.604432049265137,8.70334384C4.604432049265137,8.70334384,4.601661799265137,8.70334384,4.601661799265137,8.70334384C4.5767310592651365,8.72284244,4.5518009992651365,8.74234036,4.5296403492651365,8.76183894C4.518559989265137,8.77298102,4.507479339265137,8.78133687,4.496398959265137,8.79247892C4.496398959265137,8.79247892,4.490858499265137,8.79805028,4.490858499265137,8.79805028C4.460387589265137,8.82869095,4.429917169265137,8.86490363,4.402216359265137,8.89832979C4.399446259265137,8.9011153,4.3966758592651365,8.90390047,4.3966758592651365,8.90668598C4.3966758592651365,8.90668598,4.371745269265137,8.94011247,4.371745269265137,8.94011247C4.371745269265137,8.94289801,4.368975029265137,8.94289663,4.368975029265137,8.94568214C4.368975029265137,8.94568214,4.327423779265136,9.01253521,4.327423779265136,9.01253521C4.324653699265137,9.01810622,4.321883949265136,9.02089173,4.319113869265137,9.02646267C4.244321640265137,9.16852391,4.199999809265137,9.33008373,4.199999809265137,9.5C4.199999809265137,9.6699163,4.244321640265137,9.8342617,4.319113869265137,9.9735374C4.321883949265136,9.9791083,4.324653699265137,9.9818938,4.327423779265136,9.9874648C4.327423779265136,9.9874648,4.368975029265137,10.054318,4.368975029265137,10.054318C4.368975029265137,10.0571033,4.371745269265137,10.057102,4.371745269265137,10.0598876C4.371745269265137,10.0598876,4.3966758592651365,10.0933141,4.3966758592651365,10.0933141C4.399445919265137,10.0960995,4.402216359265137,10.0988847,4.402216359265137,10.1016704C4.429917169265137,10.1378819,4.457617489265137,10.171309,4.490858499265137,10.2019497C4.490858499265137,10.2019497,4.496398959265137,10.2075211,4.496398959265137,10.2075211C4.507479339265137,10.2186632,4.518559989265137,10.2298045,4.5296403492651365,10.238161C4.5518009992651365,10.2604451,4.5767310592651365,10.279943,4.601661799265137,10.2966563C4.601661799265137,10.2966563,4.604432049265137,10.2966563,4.604432049265137,10.2966563C4.604432049265137,10.2966563,4.637673379265137,10.3217264,4.637673379265137,10.3217264C4.640443439265137,10.324512,4.645983459265136,10.3272972,4.648753549265137,10.3300827C4.681994529265137,10.3523668,4.718005419265137,10.3746512,4.756786589265137,10.3913643C4.762326779265137,10.394149800000001,4.770637329265137,10.3969362,4.776177469265137,10.4025071C4.787257849265137,10.4080781,4.795568289265137,10.4108638,4.806648609265137,10.4164348C4.814958869265137,10.4192202,4.826039139265137,10.4247901,4.834349449265137,10.4275758C4.848199849265137,10.4331467,4.862050299265137,10.4387177,4.875900689265137,10.4415032C4.886980949265137,10.4442886,4.900831039265137,10.4498605,4.911911369265137,10.452646C4.911911369265137,10.452646,4.936841969265137,10.4610022,4.936841969265137,10.4610022C4.950692359265137,10.4637877,4.961772499265137,10.4665729,4.975622889265137,10.4693584C4.981163139265137,10.4721439,4.989473699265137,10.4721444,4.995013889265136,10.4749298C5.014404419265137,10.4777153,5.0337951792651365,10.4832871,5.053185819265137,10.4860723C5.058725949265137,10.4860723,5.064266319265137,10.4860719,5.069806459265137,10.4888572C5.086426909265136,10.491643,5.100276889265137,10.491643100000001,5.116897349265137,10.494428599999999C5.122437539265137,10.494428599999999,5.127978029265137,10.4944279,5.136288229265137,10.4972135C5.158448939265137,10.4972135,5.177839219265136,10.5,5.199999809265137,10.5C5.222160409265137,10.5,5.241551509265137,10.4999992,5.263712309265137,10.4972135C5.269252309265137,10.4972135,5.2747919092651365,10.4972143,5.283102309265137,10.494428599999999C5.299722809265137,10.494428599999999,5.316343709265137,10.491643,5.330194009265137,10.4888572C5.335734209265137,10.4888572,5.341274609265136,10.4888581,5.346814609265136,10.4860723C5.366205309265137,10.4832871,5.385595209265137,10.4805008,5.404985909265137,10.4749298C5.410525909265137,10.4721444,5.4188365092651365,10.4721439,5.424376709265137,10.4693584C5.438227209265136,10.4665729,5.449307309265137,10.4637877,5.463157609265137,10.4610022C5.463157609265137,10.4610022,5.488088209265136,10.452646,5.488088209265136,10.452646C5.499168609265137,10.4498605,5.513019409265137,10.4442886,5.524099909265137,10.4415032C5.5379503092651365,10.4359323,5.5518007092651365,10.430361,5.565651009265137,10.4275758C5.5739612092651365,10.4247901,5.5850416092651365,10.4192202,5.593351809265137,10.4164348C5.604432109265137,10.4108638,5.612742709265136,10.4080781,5.623822909265137,10.4025071C5.629363109265137,10.3997216,5.637672909265136,10.396935299999999,5.6432130092651365,10.3913643C5.679224109265137,10.3718657,5.715235109265137,10.3523668,5.751246009265136,10.3300827C5.754016209265137,10.3272972,5.7595571092651365,10.324512,5.762326909265137,10.3217264C5.762326909265137,10.3217264,5.795567609265136,10.2966563,5.795567609265136,10.2966563C5.795567609265136,10.2966563,5.798337909265137,10.2966563,5.798337909265137,10.2966563C5.823268509265136,10.2771577,5.848199509265137,10.2576596,5.870360109265137,10.238161C5.881440509265136,10.227019,5.892520209265137,10.2186632,5.903600709265136,10.2075211C5.903600709265136,10.2075211,5.909141209265137,10.2019497,5.909141209265137,10.2019497C5.939612109265137,10.171309,5.970083209265137,10.1350963,5.997784109265137,10.1016704C6.000554209265137,10.0988847,6.003323809265137,10.0960995,6.003323809265137,10.0933141C6.003323809265137,10.0933141,6.028254409265137,10.0598876,6.028254409265137,10.0598876C6.028254409265137,10.057102,6.0310246092651365,10.0571033,6.0310246092651365,10.054318C6.0310246092651365,10.054318,6.072575809265137,9.9874648,6.072575809265137,9.9874648C6.075346109265137,9.9818938,6.078116509265136,9.9791083,6.080886609265137,9.9735374C6.155678909265137,9.8314761,6.199999809265137,9.6699163,6.199999809265137,9.5C6.199999809265137,9.33008373,6.155678909265137,9.1657384,6.080886609265137,9.02646267C6.078116509265136,9.02089173,6.075346109265137,9.01532066,6.072575809265137,9.01253521Z" fill="#FFFFFF" fill-opacity="0.800000011920929"/></g></svg>