<svg xmlns="http://www.w3.org/2000/svg" xmlns:xlink="http://www.w3.org/1999/xlink" fill="none" version="1.1" width="16" height="16" viewBox="0 0 16 16"><defs><clipPath id="master_svg0_8_05710"><rect x="0" y="0" width="16" height="16" rx="0"/></clipPath></defs><g clip-path="url(#master_svg0_8_05710)"><path d="M9.2986135,14.997848C9.1198149,14.822625,9.0322037,14.529394,9.0858431,14.286228L9.0912066,14.261196L9.1394825,14.102064C9.2038498,13.826714,9.1591492,13.540635,9.0161114,13.293892L9.0143232,13.290317C8.8748608,13.04715,8.6442089,12.866561,8.3670702,12.780739L8.1954241,12.741402L8.1596642,12.728887C7.9308019,12.648427,7.7323346,12.439231,7.6643906,12.21037L7.6482987,12.15673L7.6429353,12.101303C7.6250553,11.947536,7.6161151,11.752645,7.6161151,11.521994C7.6161151,11.110756,7.6429353,10.93732,7.6500869,10.892619L7.6554508,10.862225L7.6643906,10.831827C7.7323341,10.594026,7.9486809,10.377678,8.1882715,10.30437L8.2115154,10.297218L8.3670702,10.263246C8.6424217,10.180999,8.8730717,10.000412,9.0178995,9.7536688C9.1627254,9.5087147,9.2056379,9.2226362,9.1430588,8.9454975L9.1019354,8.8060341C9.0268393,8.5503521,9.1090879,8.2410297,9.3004017,8.0532904L9.3415251,8.0139542L9.3790722,7.9871349C9.5060186,7.8941588,9.6723032,7.7868795,9.876133,7.67066C10.190819,7.4918613,10.366043,7.4167652,10.426834,7.3935218L10.462594,7.3792181L10.500141,7.3684897C10.745096,7.304122,11.045478,7.3756418,11.233217,7.5437136L11.252885,7.5615931L11.370892,7.6867528C11.580087,7.8744917,11.850073,7.9764071,12.134364,7.9764071C12.42223,7.9764071,12.694005,7.872704,12.903199,7.6813889L13.015842,7.5651693C13.182126,7.4006743,13.452113,7.3184271,13.689916,7.3506107L13.689916,5.8486986L14.077909,6.1168971C14.428355,6.3582759,14.911113,6.27424,15.157856,5.9327345C15.274076,5.7664518,15.320562,5.5608325,15.283015,5.3605776C15.247255,5.1603227,15.131036,4.9833117,14.962965,4.8688803L8.1060257,0.13964841C7.9737144,0.04667297,7.811007,-0.0016028509,7.6483002,0.00018511222C7.482017,-0.0033908139,7.3228855,0.044884872,7.188786,0.13964841L0.33184305,4.8653069C0.16377193,4.9797382,0.04755256,5.1567488,0.011792753,5.3570042C-0.023967054,5.5554709,0.022520669,5.7610903,0.13874003,5.9255848C0.38548276,6.2706666,0.86824,6.3511262,1.2186862,6.1097474L1.60668,5.8415489L1.60668,14.261196C1.60668,14.472178,1.6942915,14.676009,1.8462707,14.824413C2.0000379,14.974605,2.2074447,15.056851,2.4220033,15.056851L9.3754969,15.056851L9.3397369,15.031819L9.2986135,14.997848ZM15.97497,11.007053C15.967817,10.976659,15.915967,10.926594,15.885571,10.917654L15.717499,10.878319C15.279442,10.747795,14.912904,10.461717,14.682252,10.071936C14.451601,9.6767902,14.38187,9.2172756,14.490937,8.7756424L14.494514,8.7577629L14.539213,8.6200867C14.546366,8.5896912,14.524909,8.5199604,14.501666,8.4985037C14.481998,8.4842005,14.35505,8.3876486,14.06182,8.221365C13.76859,8.0568705,13.623763,7.9942904,13.596943,7.9835629C13.566546,7.9746227,13.493239,7.9942904,13.471784,8.0157461L13.35914,8.1337538C13.026575,8.4430752,12.590304,8.6147232,12.130791,8.6147232C11.667701,8.6147232,11.229643,8.441288,10.897078,8.1283894L10.884562,8.1140862L10.791586,8.0157461C10.768342,7.9942904,10.69861,7.9764104,10.666427,7.9853506C10.64497,7.9942904,10.496568,8.0532942,10.199761,8.2231531C9.8993788,8.3947992,9.7760077,8.4895639,9.7617035,8.502079L9.7599163,8.5038662C9.7384596,8.5253229,9.7187929,8.5950537,9.7277327,8.6254501L9.7724323,8.7792168C9.8797121,9.2190609,9.8117685,9.6803637,9.5811167,10.070147C9.3504658,10.463504,8.9821405,10.749582,8.5387192,10.878317L8.5118999,10.885469L8.3778,10.915867C8.3491926,10.924807,8.2973404,10.974869,8.2884007,11.005266C8.2848244,11.028508,8.2651567,11.182278,8.2651567,11.518418C8.2651567,11.856349,8.2866135,12.010116,8.2884007,12.031573C8.2973404,12.061968,8.3474045,12.112033,8.3778,12.12276L8.5333557,12.15852C8.9785662,12.289042,9.3504667,12.57512,9.5775423,12.970268C9.8081932,13.363626,9.8743477,13.823138,9.7670689,14.264773L9.7599163,14.286228L9.7205801,14.416753C9.7134275,14.447147,9.7330961,14.516879,9.7581272,14.540124C9.7795839,14.554427,9.9047432,14.650979,10.197972,14.817263C10.492991,14.987122,10.637817,15.044336,10.661062,15.053277C10.693246,15.062217,10.764766,15.042549,10.789798,15.021094L10.898865,14.90845C11.233219,14.595551,11.671277,14.425693,12.132579,14.425693C12.595669,14.425693,13.033726,14.599129,13.368079,14.913815L13.38596,14.931695L13.477146,15.028247C13.50039,15.049702,13.57191,15.065794,13.602305,15.058641C13.623762,15.049702,13.772164,14.990699,14.068971,14.82084C14.365777,14.650981,14.490936,14.558004,14.50524,14.545489L14.507029,14.543701C14.528484,14.522244,14.548152,14.448937,14.541,14.42033L14.496301,14.264773C14.389021,13.824928,14.456964,13.367203,14.687616,12.975633C14.918267,12.582274,15.288381,12.292622,15.731803,12.165674L15.755047,12.158522L15.88557,12.128125C15.915965,12.119184,15.967816,12.065545,15.976756,12.036938C15.980332,12.013695,16,11.859926,16,11.523786C16,11.185855,15.980332,11.032088,15.97497,11.007053ZM12.137943,13.597852C10.973962,13.597852,10.028114,12.664519,10.028114,11.518418C10.028114,10.374104,10.973962,9.4425621,12.137943,9.4425621C13.301925,9.4425621,14.247772,10.374104,14.247772,11.521996C14.242408,12.668097,13.298349,13.597852,12.137943,13.597852ZM12.137943,10.243581C11.420959,10.243581,10.839863,10.817525,10.839863,11.520205C10.839863,12.226462,11.420959,12.798619,12.137943,12.798619C12.851352,12.798619,13.434237,12.224674,13.436024,11.520205C13.436024,10.815738,12.853139,10.243581,12.137943,10.243581Z" fill="#FFFFFF" fill-opacity="0.800000011920929" style="mix-blend-mode:passthrough"/></g></svg>