<svg xmlns="http://www.w3.org/2000/svg" xmlns:xlink="http://www.w3.org/1999/xlink" fill="none" version="1.1" width="16" height="16" viewBox="0 0 16 16"><defs><clipPath id="master_svg0_8_05744"><rect x="0" y="0" width="16" height="16" rx="0"/></clipPath></defs><g clip-path="url(#master_svg0_8_05744)"><path d="M6.403043753125,0.666656494140625L1.603043753125,0.666656494140625C1.016377123125,0.666656494140625,0.536376953125,1.146656454140625,0.536376953125,1.733323094140625L0.536376953125,14.266657494140626C0.536376953125,14.853324494140624,1.0163770031250001,15.333324494140625,1.603043753125,15.333324494140625L6.403043753125,15.333324494140625C6.992147453125,15.333324494140625,7.469710353125,14.855761494140625,7.469710353125,14.266657494140626L7.469710353125,1.733323494140625C7.469710353125,1.144219724140625,6.992147453125,0.666656792163845,6.403043753125,0.666656494140625ZM4.785443753125,12.899990494140624L3.185443853125,12.899990494140624C2.892110853125,12.899990494140624,2.652110553125,12.659991494140625,2.652110553125,12.366657494140625C2.652110553125,12.073323494140626,2.892110853125,11.833324494140625,3.185443853125,11.833323494140625L4.785443753125,11.833323494140625C5.078777353125,11.833323494140625,5.318777053125,12.073323494140626,5.318777053125,12.366657494140625C5.318777053125,12.659991494140625,5.078777353125,12.899990494140624,4.785443753125,12.899990494140624ZM4.785443753125,9.966656694140624L3.185443853125,9.966656694140624C2.892110853125,9.966656694140624,2.652110553125,9.726656894140625,2.652110553125,9.433322894140625C2.652110553125,9.139989894140625,2.892110853125,8.899989094140626,3.185443853125,8.899989094140626L4.785443753125,8.899989094140626C5.078777353125,8.899989094140626,5.318777053125,9.139989894140625,5.318777053125,9.433321994140625C5.318777053125,9.726655994140625,5.078777353125,9.966655694140625,4.785443753125,9.966656694140624ZM4.785443753125,7.033323794140625L3.185443853125,7.033323794140625C2.892110853125,7.033323794140625,2.652110553125,6.793324494140625,2.652110553125,6.499990494140625C2.652110553125,6.206656894140625,2.892110853125,5.966657594140625,3.185443853125,5.966657594140625L4.785443753125,5.966657594140625C5.078777353125,5.966657594140625,5.318777053125,6.206656894140625,5.318777053125,6.499990494140625C5.318777053125,6.793324494140625,5.078777353125,7.033323794140625,4.785443753125,7.033323794140625ZM4.785443753125,4.099990094140625L3.185443853125,4.099990094140625C2.892110853125,4.099990094140625,2.652110553125,3.859990394140625,2.652110553125,3.566657094140625C2.652110553125,3.273323794140625,2.892110853125,3.033323794140625,3.185443853125,3.033323794140625L4.785443753125,3.033323794140625C5.078777353125,3.033323794140625,5.318777053125,3.273323794140625,5.318777053125,3.566657094140625C5.318777053125,3.859990394140625,5.078777353125,4.099990094140625,4.785443753125,4.099990094140625ZM14.397710953125,6.266657394140625L9.597711553125,6.266657394140625C9.008607853125,6.266657394140625,8.531044053125001,6.744219794140625,8.531044053125001,7.333323494140625L8.531044053125001,14.266656494140625C8.531044053125001,14.855760494140625,9.008607853125,15.333323494140625,9.597711553125,15.333323494140625L14.397710953125,15.333323494140625C14.984378953125,15.333323494140625,15.464377953125,14.853322494140626,15.464377953125,14.266656494140625L15.464377953125,7.333322994140625C15.464377953125,6.746656394140625,14.984378953125,6.266656894140625,14.397710953125,6.266657394140625ZM12.785443953125,12.899990494140624L11.185444953125,12.899990494140624C10.892110953125,12.899990494140624,10.652110953125,12.659990494140626,10.652110953125,12.366657494140625C10.652109953125,12.073323494140626,10.892109953125,11.833324494140625,11.185444953125,11.833323494140625L12.785443953125,11.833323494140625C13.078776953125,11.833323494140625,13.318776953125,12.073323494140626,13.318776953125,12.366657494140625C13.318776953125,12.659991494140625,13.078776953125,12.899990494140624,12.785443953125,12.899990494140624ZM12.785443953125,9.966655694140625L11.185444953125,9.966655694140625C10.892110953125,9.966655694140625,10.652110953125,9.726656894140625,10.652110953125,9.433321994140625C10.652109953125,9.139987994140625,10.892109953125,8.899989094140626,11.185444953125,8.899989094140626L12.785443953125,8.899989094140626C13.078776953125,8.899989094140626,13.318776953125,9.139989894140625,13.318776953125,9.433321994140625C13.318776953125,9.726655994140625,13.078776953125,9.966655694140625,12.785443953125,9.966655694140625Z" fill="currentColor"/></g></svg>